<svg xmlns="http://www.w3.org/2000/svg" xmlns:xlink="http://www.w3.org/1999/xlink" width="512" height="512" viewBox="0 0 512 512" fill="none">
<rect x="0" y="0" width="0.001" height="0.001"   fill="#F9F9F9" >
</rect>
<path d="M193.919 258.481C198.74 259.075 217.131 269.398 248.82 272.265C275.892 274.714 289.643 270.891 314.411 267.284C310.493 271.023 302.857 273.217 296.9 275.205C290.554 277.322 283.534 279.182 276.583 280.68C262.356 283.747 247.278 285.768 231.926 286.218C200.95 287.127 171.769 281.741 145.62 272.025C118.714 262.028 100.931 249.419 82.9598 234.075C71.7328 224.49 56.922 206.852 49.598 192.655C47.1688 187.946 43.7486 179.872 41 175.838C41.8078 203.23 63.8336 244.479 82.3608 264.869L104.671 287.147C125.987 306.694 185.614 339.409 226.933 338.996C219.413 331.335 210.655 323.695 207.264 310.548C217.299 314.718 220.946 319.423 239.8 325.945C278.362 339.285 329.075 336.526 360.751 317.538C346.887 311.912 329.105 311.143 321.214 300.793C370.518 301.604 397.808 290.202 426.659 266.948C442.511 254.173 472.699 207.379 471.988 173.009C422.968 172.436 371.415 199.979 333.927 217.345C304.765 230.855 267.567 250.256 235.01 256.461C218.177 259.669 209.512 257.702 193.919 258.482L193.919 258.481Z"   fill="url(#linear_fill_SJ6l2183MR9l5Z8dIcT-T)" >
</path>
<defs>
<linearGradient id="linear_fill_SJ6l2183MR9l5Z8dIcT-T" x1="41" y1="256" x2="472" y2="256" gradientUnits="userSpaceOnUse">
<stop offset="0" stop-color="#BEAEFF" stop-opacity="0.6" />
<stop offset="1" stop-color="#FF9EEA"  />
</linearGradient>
</defs>
</svg>
